<?xml version="1.0" standalone="no"?>
<!DOCTYPE svg PUBLIC "-//W3C//DTD SVG 20010904//EN"
 "http://www.w3.org/TR/2001/REC-SVG-20010904/DTD/svg10.dtd">
<svg version="1.0" xmlns="http://www.w3.org/2000/svg"
 width="363.000000pt" height="363.000000pt" viewBox="0 0 363.000000 363.000000"
 preserveAspectRatio="xMidYMid meet">
<metadata>
Created by potrace 1.14, written by Peter Selinger 2001-2017
</metadata>
<g transform="translate(0.000000,363.000000) scale(0.100000,-0.100000)"
fill="#000000" stroke="none">
<path d="M1566 3184 c-305 -68 -613 -302 -804 -609 -181 -293 -262 -596 -262
-980 0 -344 65 -566 210 -719 117 -123 232 -168 425 -168 360 0 681 238 804
594 36 104 35 169 -2 155 -8 -3 -32 -36 -52 -74 -95 -170 -214 -295 -345 -362
-160 -82 -335 -90 -470 -21 -60 31 -141 117 -182 196 -113 214 -121 603 -22
996 92 365 294 667 515 767 90 41 171 54 292 49 83 -4 113 -9 157 -30 100 -46
149 -113 175 -240 9 -39 20 -77 26 -85 39 -46 121 42 164 176 51 157 -33 284
-230 347 -73 23 -309 28 -399 8z"/>
<path d="M1750 1731 l0 -200 27 -21 c34 -26 67 -23 71 8 3 18 -1 22 -22 22
l-26 0 0 149 c0 191 -7 241 -31 241 -18 0 -19 -12 -19 -199z"/>
<path d="M1390 1700 l0 -200 25 0 c25 0 25 2 25 78 l0 77 72 3 c87 4 125 22
144 67 18 44 18 79 -1 115 -24 47 -61 60 -170 60 l-95 0 0 -200z m199 143 c12
-10 24 -35 27 -55 5 -30 2 -41 -19 -62 -23 -23 -35 -26 -92 -26 l-65 0 0 80 0
80 64 0 c46 0 70 -5 85 -17z"/>
<path d="M2920 1835 c0 -31 -3 -35 -25 -35 -16 0 -25 -6 -25 -15 0 -9 9 -15
25 -15 l25 0 0 -111 c0 -109 0 -111 29 -140 31 -31 53 -35 96 -19 17 7 25 16
23 27 -3 14 -11 17 -42 15 -25 -3 -42 1 -47 10 -5 7 -9 58 -9 114 0 89 2 101
18 101 51 -1 72 4 72 17 0 17 -22 26 -61 26 -26 0 -29 4 -29 30 0 25 -4 30
-25 30 -22 0 -25 -4 -25 -35z"/>
<path d="M1955 1796 c-44 -19 -59 -40 -40 -56 12 -10 19 -8 41 9 32 25 86 27
108 5 35 -34 15 -58 -64 -75 -59 -13 -110 -53 -110 -88 0 -88 109 -132 172
-69 16 16 22 18 29 7 5 -8 9 -17 9 -21 0 -5 16 -8 35 -8 25 0 35 4 35 16 0 9
-9 18 -20 21 -18 5 -20 14 -20 100 0 105 -15 148 -56 163 -35 14 -83 12 -119
-4z m125 -166 c0 -74 -56 -119 -109 -89 -30 17 -39 60 -17 78 13 11 90 37 119
40 4 1 7 -13 7 -29z"/>
<path d="M2306 1785 c-34 -23 -36 -23 -36 -5 0 13 -7 20 -20 20 -19 0 -20 -7
-20 -150 l0 -150 25 0 25 0 0 101 c0 130 19 168 86 169 55 0 64 -22 64 -153
l0 -117 25 0 25 0 0 126 c0 125 0 126 -29 155 -38 38 -93 40 -145 4z"/>
<path d="M2629 1787 c-45 -30 -63 -70 -63 -137 -1 -103 67 -169 159 -156 42 7
95 43 95 66 0 22 -30 22 -48 0 -14 -17 -29 -23 -61 -23 -49 0 -84 28 -95 76
l-6 27 110 0 110 0 0 36 c0 109 -112 171 -201 111z m130 -43 c12 -15 21 -35
21 -45 0 -17 -9 -19 -86 -19 -84 0 -85 0 -79 23 21 68 104 92 144 41z"/>
</g>
</svg>
